<svg width="341" height="226" viewBox="0 0 341 226" fill="none" xmlns="http://www.w3.org/2000/svg">
<path d="M137.5 214C75.9 196 55.8333 137.833 53.5 111C116.7 111 147.167 143.667 154.5 160C139.7 182.8 137 205.5 137.5 214Z" fill="#5D5A8C"/>
<path d="M281.5 111C239.167 106.667 154.5 123.1 154.5 223.5C184.333 230.833 251.5 218.6 281.5 111Z" fill="#5D5A8C"/>
<path d="M281.5 160C258.7 199.2 232.333 218.667 222 223.5C275.79 231.1 322.746 204 339.5 189.5C325.9 169.9 295.167 161.667 281.5 160Z" fill="#5D5A8C"/>
<path d="M119 223.5C96.6 231.1 27.8333 204 1 189.5C11.4 169.9 40.3333 161.667 53.5 160C62.7 185.6 104.167 213 119 223.5Z" fill="#5D5A8C"/>
<path d="M164 145.5C143.6 117.5 125.5 110.833 119 111C115.4 62.1998 150.5 17.3332 168.5 1C216.9 51.4 221 91.6667 217 105.5C191.4 114.7 171 136 164 145.5Z" fill="#5D5A8C"/>
<path d="M106 105.5C101.2 97.5 85 94.5 77.5 94L81.5 61.5L111 71.5C104.6 76.3 105 96.1667 106 105.5Z" fill="#5D5A8C"/>
<path d="M258.5 94C251.7 94 237 99 230.5 101.5C232.5 98.3 229.667 82.1667 228 74.5L255.5 64L258.5 94Z" fill="#5D5A8C"/>
<path d="M137.5 214C75.9 196 55.8333 137.833 53.5 111C116.7 111 147.167 143.667 154.5 160C139.7 182.8 137 205.5 137.5 214Z" stroke="black"/>
<path d="M281.5 111C239.167 106.667 154.5 123.1 154.5 223.5C184.333 230.833 251.5 218.6 281.5 111Z" stroke="black"/>
<path d="M281.5 160C258.7 199.2 232.333 218.667 222 223.5C275.79 231.1 322.746 204 339.5 189.5C325.9 169.9 295.167 161.667 281.5 160Z" stroke="black"/>
<path d="M119 223.5C96.6 231.1 27.8333 204 1 189.5C11.4 169.9 40.3333 161.667 53.5 160C62.7 185.6 104.167 213 119 223.5Z" stroke="black"/>
<path d="M164 145.5C143.6 117.5 125.5 110.833 119 111C115.4 62.1998 150.5 17.3332 168.5 1C216.9 51.4 221 91.6667 217 105.5C191.4 114.7 171 136 164 145.5Z" stroke="black"/>
<path d="M106 105.5C101.2 97.5 85 94.5 77.5 94L81.5 61.5L111 71.5C104.6 76.3 105 96.1667 106 105.5Z" stroke="black"/>
<path d="M258.5 94C251.7 94 237 99 230.5 101.5C232.5 98.3 229.667 82.1667 228 74.5L255.5 64L258.5 94Z" stroke="black"/>
</svg>
